<?xml version="1.0" standalone="no"?>
<!DOCTYPE svg PUBLIC "-//W3C//DTD SVG 20010904//EN"
 "http://www.w3.org/TR/2001/REC-SVG-20010904/DTD/svg10.dtd">
<svg version="1.0" xmlns="http://www.w3.org/2000/svg"
 width="512.000000pt" height="512.000000pt" viewBox="0 0 512.000000 512.000000"
 preserveAspectRatio="xMidYMid meet">
<metadata>
Created by potrace 1.11, written by Peter Selinger 2001-2013
</metadata>
<g transform="translate(0.000000,512.000000) scale(0.100000,-0.100000)"
fill="#000000" stroke="none">
<path d="M2320 4985 c-96 -35 -229 -82 -295 -105 -66 -23 -129 -45 -140 -50
-11 -4 -49 -18 -85 -30 -36 -12 -74 -26 -85 -30 -11 -5 -74 -28 -140 -51 -66
-22 -181 -63 -255 -89 -74 -26 -227 -81 -340 -120 -113 -40 -286 -102 -385
-137 -99 -36 -193 -66 -210 -68 -16 -1 -31 -7 -33 -14 -2 -6 -11 -11 -20 -12
-13 0 -13 -2 3 -8 20 -8 20 -17 20 -1521 0 -998 3 -1514 10 -1519 5 -5 73 -42
150 -83 77 -42 160 -87 185 -100 25 -14 81 -44 125 -68 98 -53 173 -94 243
-131 123 -68 162 -89 257 -139 55 -29 105 -56 110 -60 6 -4 51 -29 100 -55 50
-26 113 -60 140 -75 28 -15 82 -45 120 -65 39 -21 90 -49 115 -63 50 -27 126
-69 245 -132 44 -24 144 -79 223 -122 78 -43 147 -78 152 -78 6 0 10 6 10 13
0 6 44 36 98 64 120 65 225 122 317 172 39 21 102 56 140 76 94 51 408 221
470 255 28 15 77 42 110 59 33 18 67 36 75 41 17 11 173 95 330 178 58 30 121
66 140 79 19 13 38 23 42 23 5 0 48 22 97 49 48 27 133 73 187 102 54 28 106
58 114 65 13 11 15 191 15 1519 0 1330 2 1508 15 1515 13 8 13 9 0 14 -8 3
-46 16 -85 30 -73 26 -497 175 -645 227 -47 17 -94 34 -105 39 -11 5 -87 32
-170 60 -82 29 -199 70 -260 92 -60 21 -128 45 -150 52 -22 8 -200 70 -395
140 -195 69 -361 126 -370 125 -8 0 -94 -29 -190 -64z"/>
</g>
</svg>
